# Blender v2.75 (sub 0) OBJ File: 'die.blend'
# www.blender.org
o Cube.001
v 0.100000 -0.100000 0.100000
v -0.100000 -0.100000 0.100000
v -0.100000 -0.100000 -0.100000
v -0.100000 0.100000 -0.100000
v -0.100000 0.100000 0.100000
v 0.100000 0.100000 0.100000
v 0.100000 0.100000 -0.100000
v 0.100000 -0.100000 -0.100000
v -0.100000 0.100000 -0.100000
v -0.100000 0.100000 -0.100000
v -0.100000 0.100000 -0.100000
v -0.100000 0.100000 -0.100000
v -0.100000 0.100000 -0.100000
v 0.100000 0.100000 -0.100000
v 0.100000 0.100000 -0.100000
v 0.100000 0.100000 -0.100000
v 0.100000 0.100000 0.100000
v 0.100000 0.100000 0.100000
v 0.100000 0.100000 0.100000
v 0.100000 0.100000 0.100000
v 0.100000 -0.100000 0.100000
v 0.100000 -0.100000 0.100000
v 0.100000 -0.100000 0.100000
v 0.100000 -0.100000 0.100000
v -0.100000 -0.100000 -0.100000
v -0.100000 -0.100000 -0.100000
v -0.100000 -0.100000 -0.100000
v 0.100000 -0.100000 -0.100000
v 0.100000 -0.100000 -0.100000
v 0.100000 -0.100000 -0.100000
v -0.100000 0.100000 0.100000
v -0.100000 0.100000 0.100000
v -0.100000 -0.100000 0.100000
v -0.100000 -0.100000 0.100000
v -0.100000 -0.100000 0.100000
v -0.100000 -0.100000 0.100000
vt 1.000000 0.500000
vt 0.750000 0.500000
vt 0.750000 0.250000
vt 0.500000 0.250000
vt 0.500000 0.500000
vt 0.250000 0.500000
vt 0.500000 0.000000
vt 0.500000 0.250000
vt 0.250000 0.250000
vt 0.250000 0.500000
vt 0.000000 0.500000
vt 0.000000 0.250000
vt 0.500000 0.750000
vt 0.250000 0.750000
vt 0.250000 0.500000
vt 0.750000 0.500000
vt 0.500000 0.500000
vt 0.500000 0.250000
vt 1.000000 0.250000
vt 1.000000 0.500000
vt 0.750000 0.250000
vt 0.250000 0.250000
vt 0.500000 0.250000
vt 0.250000 0.500000
vt 0.250000 0.000000
vt 0.500000 0.000000
vt 0.250000 0.250000
vt 0.250000 0.250000
vt 0.250000 0.500000
vt 0.000000 0.250000
vt 0.500000 0.500000
vt 0.500000 0.750000
vt 0.250000 0.500000
vt 0.750000 0.250000
vt 0.750000 0.500000
vt 0.500000 0.250000
vn 0.000000 -1.000000 0.000000
vn 0.000000 1.000000 0.000000
vn 1.000000 -0.000000 0.000000
vn 0.000000 -0.000000 1.000000
vn -1.000000 0.000000 0.000000
vn 0.000000 0.000000 -1.000000
s 1
f 22/1/1 35/2/1 26/3/1
f 10/4/2 31/5/2 17/6/2
f 15/7/3 18/8/3 21/9/3
f 19/10/4 32/11/4 34/12/4
f 33/13/5 5/14/5 12/15/5
f 28/16/6 25/17/6 11/18/6
f 29/19/1 23/20/1 3/21/1
f 14/22/2 9/23/2 20/24/2
f 30/25/3 16/26/3 24/27/3
f 1/28/4 6/29/4 2/30/4
f 27/31/5 36/32/5 4/33/5
f 7/34/6 8/35/6 13/36/6
